<svg width="123" height="123" viewBox="0 0 123 123" fill="none" xmlns="http://www.w3.org/2000/svg">
<path d="M107.625 7.6875C111.871 7.6875 115.312 11.1293 115.312 15.375V107.625C115.312 111.871 111.871 115.312 107.625 115.312H15.375C11.1293 115.312 7.6875 111.871 7.6875 107.625V15.375C7.6875 11.1293 11.1293 7.6875 15.375 7.6875H107.625ZM15.375 0C6.88362 0 0 6.88362 0 15.375V107.625C0 116.116 6.88362 123 15.375 123H107.625C116.116 123 123 116.116 123 107.625V15.375C123 6.88362 116.116 0 107.625 0H15.375Z" fill="#02232C"/>
<path d="M92.2217 35.2468C94.6385 37.9096 94.7626 42.3332 92.4988 45.1273L57.7183 88.0549C56.6312 89.3966 55.1276 90.1754 53.5382 90.22C51.9489 90.2646 50.404 89.5713 49.2434 88.2925L30.6775 67.8371C28.2607 65.1744 28.1366 60.7507 30.4004 57.9567C32.6642 55.1626 36.4585 55.0562 38.8754 57.719L53.0652 73.353L83.7468 35.4845C86.0106 32.6905 89.8049 32.5841 92.2217 35.2468Z" fill="#E55924"/>
</svg>
