<svg width="123" height="123" viewBox="0 0 123 123" fill="none" xmlns="http://www.w3.org/2000/svg">
<path d="M61.5 38.4375C67.8685 38.4375 73.0312 33.2748 73.0312 26.9062C73.0312 20.5377 67.8685 15.375 61.5 15.375C55.1315 15.375 49.9688 20.5377 49.9688 26.9062C49.9688 33.2748 55.1315 38.4375 61.5 38.4375Z" fill="#E55924"/>
<path d="M92.25 61.5C98.6185 61.5 103.781 56.3373 103.781 49.9688C103.781 43.6002 98.6185 38.4375 92.25 38.4375C85.8815 38.4375 80.7188 43.6002 80.7188 49.9688C80.7188 56.3373 85.8815 61.5 92.25 61.5Z" fill="#E55924"/>
<path d="M42.2812 53.8125C42.2812 60.181 37.1185 65.3438 30.75 65.3438C24.3815 65.3438 19.2188 60.181 19.2188 53.8125C19.2188 47.444 24.3815 42.2812 30.75 42.2812C37.1185 42.2812 42.2812 47.444 42.2812 53.8125Z" fill="#E55924"/>
<path d="M46.125 99.9375C52.4935 99.9375 57.6562 94.7748 57.6562 88.4062C57.6562 82.0377 52.4935 76.875 46.125 76.875C39.7565 76.875 34.5938 82.0377 34.5938 88.4062C34.5938 94.7748 39.7565 99.9375 46.125 99.9375Z" fill="#E55924"/>
<path d="M123 61.5C123 85.72 108.652 81.3721 95.5808 77.4111C87.788 75.0496 80.449 72.8257 76.875 76.875C72.2414 82.1249 73.2241 90.8558 74.1765 99.3175C75.5404 111.435 76.8422 123 61.5 123C27.5345 123 0 95.4655 0 61.5C0 27.5345 27.5345 0 61.5 0C95.4655 0 123 27.5345 123 61.5ZM61.5 115.312C66.1976 115.312 66.5246 113.995 66.5338 113.958C67.1339 112.838 67.4873 110.389 67.0713 105.359C66.9642 104.066 66.7907 102.506 66.6022 100.811C66.2056 97.2458 65.743 93.0868 65.6958 89.5714C65.6231 84.1432 66.3374 77.1968 71.1114 71.7879C73.9424 68.5805 77.6051 67.3417 80.8852 67.0335C83.9947 66.7414 87.1333 67.2358 89.8016 67.8344C92.4398 68.4262 95.2012 69.2632 97.6832 70.0155L97.9037 70.0823C100.559 70.8868 102.955 71.607 105.226 72.1222C110.246 73.2607 112.175 72.7614 112.847 72.3092C113.14 72.1121 115.312 70.4264 115.312 61.5C115.312 31.7802 91.2198 7.6875 61.5 7.6875C31.7802 7.6875 7.6875 31.7802 7.6875 61.5C7.6875 91.2198 31.7802 115.312 61.5 115.312Z" fill="#E55924"/>
</svg>
