<svg width="123" height="117" viewBox="0 0 123 117" fill="none" xmlns="http://www.w3.org/2000/svg">
<path d="M65.1274 2.31655C62.0284 -0.772175 57.0039 -0.772194 53.9049 2.31655L1.16212 54.8847C-0.387375 56.429 -0.387375 58.9329 1.16212 60.4773C2.71163 62.0217 5.22386 62.0217 6.77336 60.4773L11.9032 55.3644V97.227C11.9032 103.779 17.2325 109.091 23.8065 109.091H55.5484C57.7397 109.091 59.5161 107.32 59.5161 105.136C59.5161 102.952 57.7397 101.182 55.5484 101.182L23.8065 101.182C21.6151 101.182 19.8387 99.4111 19.8387 97.227V47.4552L59.5161 7.9092L112.259 60.4773C113.808 62.0217 116.321 62.0217 117.87 60.4773C119.42 58.9329 119.42 56.429 117.87 54.8847L99.1936 36.2699V10.2258C99.1936 8.04169 97.4171 6.27116 95.2258 6.27116H87.2903C85.099 6.27116 83.3226 8.04169 83.3226 10.2258V20.4515L65.1274 2.31655Z" fill="#E55924"/>
<path d="M123 89.3178C123 104.606 110.565 117 95.2258 117C79.8865 117 67.4516 104.606 67.4516 89.3178C67.4516 74.0293 79.8865 61.6356 95.2258 61.6356C110.565 61.6356 123 74.0293 123 89.3178ZM95.2258 73.4994C93.0345 73.4994 91.2581 75.2699 91.2581 77.454V85.3632H83.3226C81.1313 85.3632 79.3548 87.1337 79.3548 89.3178C79.3548 91.5019 81.1313 93.2724 83.3226 93.2724H91.2581V101.182C91.2581 103.366 93.0345 105.136 95.2258 105.136C97.4171 105.136 99.1936 103.366 99.1936 101.182V93.2724H107.129C109.32 93.2724 111.097 91.5019 111.097 89.3178C111.097 87.1337 109.32 85.3632 107.129 85.3632H99.1936V77.454C99.1936 75.2699 97.4171 73.4994 95.2258 73.4994Z" fill="#E55924"/>
</svg>
