<svg width="123" height="123" viewBox="0 0 123 123" fill="none" xmlns="http://www.w3.org/2000/svg">
<path fill-rule="evenodd" clip-rule="evenodd" d="M26.9062 46.125C24.7834 46.125 23.0625 47.8459 23.0625 49.9688V111.469C23.0625 113.592 24.7834 115.312 26.9062 115.312H96.0938C98.2166 115.312 99.9375 113.592 99.9375 111.469V49.9688C99.9375 47.8459 98.2166 46.125 96.0938 46.125H80.7188C78.5959 46.125 76.875 44.4041 76.875 42.2812C76.875 40.1584 78.5959 38.4375 80.7188 38.4375H96.0938C102.462 38.4375 107.625 43.6002 107.625 49.9688V111.469C107.625 117.837 102.462 123 96.0938 123H26.9062C20.5377 123 15.375 117.837 15.375 111.469V49.9688C15.375 43.6002 20.5377 38.4375 26.9062 38.4375H42.2812C44.4041 38.4375 46.125 40.1584 46.125 42.2812C46.125 44.4041 44.4041 46.125 42.2812 46.125H26.9062Z" fill="#E55924"/>
<path fill-rule="evenodd" clip-rule="evenodd" d="M58.7821 1.12581C60.2831 -0.37527 62.7169 -0.37527 64.2179 1.12581L87.2804 24.1883C88.7815 25.6894 88.7815 28.1231 87.2804 29.6242C85.7794 31.1253 83.3456 31.1253 81.8446 29.6242L65.3438 13.1234V80.7188C65.3438 82.8416 63.6228 84.5625 61.5 84.5625C59.3772 84.5625 57.6562 82.8416 57.6562 80.7188V13.1234L41.1554 29.6242C39.6544 31.1253 37.2206 31.1253 35.7196 29.6242C34.2185 28.1231 34.2185 25.6894 35.7196 24.1883L58.7821 1.12581Z" fill="#E55924"/>
</svg>
