<svg width="122" height="122" viewBox="0 0 122 122" fill="none" xmlns="http://www.w3.org/2000/svg">
<path fill-rule="evenodd" clip-rule="evenodd" d="M30.5 30.5C30.5 13.6553 44.1553 0 61 0C77.8444 0 91.5 13.6553 91.5 30.5C91.5 46.0536 79.8582 58.8879 64.8125 60.764V102.938C64.8125 105.043 63.1056 106.75 61 106.75C58.8944 106.75 57.1875 105.043 57.1875 102.938V60.764C42.1422 58.8879 30.5 46.0536 30.5 30.5ZM49.5113 95.8783C49.8554 97.9561 48.4503 99.9188 46.373 100.263C40.9482 101.162 36.6197 102.51 33.7592 104.016C32.3271 104.771 31.4318 105.478 30.9361 106.04C30.6981 106.309 30.5883 106.505 30.5402 106.616C30.5167 106.67 30.5075 106.705 30.5037 106.722C30.5002 106.738 30.5 106.75 30.5 106.75C30.5 106.75 30.4996 106.769 30.5117 106.809C30.5246 106.851 30.5565 106.935 30.6337 107.06C30.7955 107.324 31.1256 107.721 31.7438 108.208C33.0026 109.2 35.0604 110.26 37.943 111.221C43.6685 113.129 51.8206 114.375 61 114.375C70.1794 114.375 78.3316 113.129 84.0572 111.221C86.9395 110.26 88.9975 109.2 90.2564 108.208C90.8747 107.721 91.2041 107.324 91.3666 107.06C91.4436 106.935 91.4756 106.851 91.4886 106.809C91.5 106.77 91.5 106.751 91.5 106.751C91.5 106.751 91.5 106.738 91.4962 106.722C91.4924 106.705 91.4832 106.67 91.4596 106.616C91.4116 106.505 91.3018 106.309 91.0639 106.04C90.5682 105.478 89.673 104.771 88.2411 104.016C85.3802 102.51 81.0515 101.162 75.627 100.263C73.5497 99.9188 72.1446 97.9561 72.4887 95.8783C72.8329 93.8012 74.7958 92.3959 76.873 92.7406C82.7465 93.7135 87.949 95.2439 91.7951 97.2706C95.3194 99.1273 99.125 102.186 99.125 106.75C99.125 109.998 97.1471 112.486 94.9762 114.197C92.7619 115.941 89.7951 117.346 86.4683 118.454C79.775 120.685 70.7709 122 61 122C51.2291 122 42.225 120.685 35.5318 118.454C32.2051 117.346 29.2379 115.941 27.0241 114.197C24.8533 112.486 22.875 109.998 22.875 106.75C22.875 102.186 26.6808 99.1273 30.2048 97.2706C34.051 95.2439 39.2537 93.7135 45.127 92.7406C47.2042 92.3959 49.1671 93.8012 49.5113 95.8783Z" fill="#02232C"/>
</svg>
