<svg width="125" height="94" viewBox="0 0 125 94" fill="none" xmlns="http://www.w3.org/2000/svg">
<path d="M62.4836 18.76C44.9006 18.76 27.3215 18.7678 9.73855 18.7561C5.11186 18.7561 1.49506 16.0559 0.348169 11.8291C-1.21755 6.05992 2.9316 0.322132 8.88915 0.0160119C9.28058 -0.00361115 9.67201 0.000322089 10.0595 0.000322089C45.0259 0.000322089 79.9962 0.000322089 114.963 0.000322089C119.675 0.000322089 123.249 2.43358 124.545 6.49948C126.455 12.4845 122.126 18.6148 115.812 18.7364C111.224 18.8267 106.629 18.76 102.041 18.76C88.8542 18.76 75.6709 18.76 62.4836 18.76Z" fill="#02232C"/>
<path d="M62.6397 37.606C80.1718 37.606 97.7039 37.5982 115.236 37.6099C119.886 37.6099 123.491 40.2865 124.642 44.5133C126.216 50.2864 122.094 56.0203 116.129 56.35C115.737 56.3696 115.346 56.3696 114.958 56.3696C79.9918 56.3696 45.0215 56.3696 10.0551 56.3696C5.29144 56.3696 1.66289 53.8657 0.414232 49.7449C-1.39026 43.7834 2.91547 37.7552 9.16268 37.6296C13.6054 37.5393 18.052 37.606 22.4948 37.606C35.8777 37.606 49.2568 37.606 62.6397 37.606Z" fill="#02232C"/>
<path d="M62.4167 93.9791C44.8846 93.9791 27.3525 93.9831 9.8204 93.9752C5.10368 93.9752 1.47905 91.2751 0.336075 86.9816C-1.18267 81.2791 2.92734 75.5845 8.81443 75.2391C9.20586 75.2156 9.59729 75.2195 9.9848 75.2195C45.002 75.2195 80.0193 75.2195 115.033 75.2195C119.71 75.2195 123.3 77.7038 124.564 81.7854C126.443 87.845 122.024 93.9124 115.6 93.9674C108.374 94.0302 101.145 93.9831 93.915 93.9831C83.4169 93.9831 72.9149 93.9831 62.4167 93.9831V93.9791Z" fill="#02232C"/>
</svg>
