<svg width="124" height="124" viewBox="0 0 124 124" fill="none" xmlns="http://www.w3.org/2000/svg">
<path d="M108.5 7.75C112.78 7.75 116.25 11.2198 116.25 15.5V108.5C116.25 112.78 112.78 116.25 108.5 116.25H15.5C11.2198 116.25 7.75 112.78 7.75 108.5V15.5C7.75 11.2198 11.2198 7.75 15.5 7.75H108.5ZM15.5 0C6.93959 0 0 6.93959 0 15.5V108.5C0 117.06 6.93959 124 15.5 124H108.5C117.06 124 124 117.06 124 108.5V15.5C124 6.93959 117.06 0 108.5 0H15.5Z" fill="#02232C"/>
<path d="M92.6503 35.2446C95.0456 37.8837 95.1685 42.268 92.9249 45.0372L58.4539 87.5828C57.3764 88.9126 55.8862 89.6845 54.311 89.7286C52.7358 89.7728 51.2046 89.0857 50.0543 87.8183L31.6537 67.5449C29.2584 64.9059 29.1354 60.5216 31.3791 57.7524C33.6227 54.9832 37.3833 54.8778 39.7786 57.5168L53.8422 73.0118L84.2507 35.4802C86.4944 32.711 90.255 32.6056 92.6503 35.2446Z" fill="#02232C"/>
</svg>
