<svg width="123" height="123" viewBox="0 0 123 123" fill="none" xmlns="http://www.w3.org/2000/svg">
<path d="M107.625 7.6875C111.871 7.6875 115.312 11.1293 115.312 15.375V107.625C115.312 111.871 111.871 115.312 107.625 115.312H15.375C11.1293 115.312 7.6875 111.871 7.6875 107.625V15.375C7.6875 11.1293 11.1293 7.6875 15.375 7.6875H107.625ZM15.375 0C6.88362 0 0 6.88362 0 15.375V107.625C0 116.116 6.88362 123 15.375 123H107.625C116.116 123 123 116.116 123 107.625V15.375C123 6.88362 116.116 0 107.625 0H15.375Z" fill="#02232C"/>
</svg>
