<svg width="97" height="85" viewBox="0 0 97 85" fill="none" xmlns="http://www.w3.org/2000/svg">
<path fill-rule="evenodd" clip-rule="evenodd" d="M-3.71547e-06 42.5C-4.00861e-06 39.1469 2.71479 36.4286 6.0625 36.4286L76.3013 36.4286L50.2757 10.3651C47.908 7.99363 47.908 4.14922 50.2757 1.77772C52.6432 -0.592564 56.4817 -0.592564 58.8493 1.77772L95.2243 38.2069C97.5919 40.5779 97.5919 44.4221 95.2243 46.7931L58.8493 83.2217C56.4818 85.5928 52.6432 85.5928 50.2757 83.2217C47.908 80.8506 47.908 77.0065 50.2757 74.6354L76.3013 48.5714L6.0625 48.5714C2.71479 48.5714 -3.42233e-06 45.8531 -3.71547e-06 42.5Z" fill="#22A5DD"/>
</svg>
