<svg width="17" height="17" viewBox="0 0 17 17" fill="none" xmlns="http://www.w3.org/2000/svg">
<path d="M4.05005 9.875C4.60233 9.875 5.05005 9.42728 5.05005 8.875C5.05005 8.32272 4.60233 7.875 4.05005 7.875C3.49776 7.875 3.05005 8.32272 3.05005 8.875C3.05005 9.42728 3.49776 9.875 4.05005 9.875Z" fill="#22A5DD"/>
<path d="M8.05005 9.875C8.60233 9.875 9.05005 9.42728 9.05005 8.875C9.05005 8.32272 8.60233 7.875 8.05005 7.875C7.49776 7.875 7.05005 8.32272 7.05005 8.875C7.05005 9.42728 7.49776 9.875 8.05005 9.875Z" fill="#22A5DD"/>
<path d="M12.05 9.875C12.6023 9.875 13.05 9.42728 13.05 8.875C13.05 8.32272 12.6023 7.875 12.05 7.875C11.4978 7.875 11.05 8.32272 11.05 8.875C11.05 9.42728 11.4978 9.875 12.05 9.875Z" fill="#22A5DD"/>
</svg>
