<svg width="17" height="17" viewBox="0 0 17 17" fill="none" xmlns="http://www.w3.org/2000/svg">
<path d="M7.05005 6.875H6.05005V12.875H7.05005V6.875Z" fill="#22A5DD"/>
<path d="M10.05 6.875H9.05005V12.875H10.05V6.875Z" fill="#22A5DD"/>
<path d="M2.05005 3.875V4.875H3.05005V14.875C3.05005 15.1402 3.15541 15.3946 3.34294 15.5821C3.53048 15.7696 3.78483 15.875 4.05005 15.875H12.05C12.3153 15.875 12.5696 15.7696 12.7572 15.5821C12.9447 15.3946 13.05 15.1402 13.05 14.875V4.875H14.05V3.875H2.05005ZM4.05005 14.875V4.875H12.05V14.875H4.05005Z" fill="#22A5DD"/>
<path d="M10.05 1.875H6.05005V2.875H10.05V1.875Z" fill="#22A5DD"/>
</svg>
